<svg version="1.1" id="Layer_1" xmlns="http://www.w3.org/2000/svg" xmlns:xlink="http://www.w3.org/1999/xlink" x="0px" y="0px"
	 viewBox="0 0 150.9 149.2" style="enable-background:new 0 0 150.9 149.2;" xml:space="preserve">
<style type="text/css">
	.st0{fill:#00ACC1;stroke:#000000;stroke-miterlimit:10;}
</style>
<g>
	<path class="st0" d="M75.1,75.2c0,0-0.7,33.5-29.7,44.3c0,0,17.4,26.5,36.4,22.7c19.9-4.1,27.5-21.9,29.7-30.4
		C113.8,102.2,107.9,79,75.1,75.2z"/>
	<path class="st0" d="M72.8,75.1c0,0-33.5-0.7-44.3-29.7c0,0-26.5,17.4-22.7,36.4c4.1,19.9,21.9,27.5,30.4,29.7
		C45.7,113.8,68.9,107.9,72.8,75.1z"/>
	<path class="st0" d="M72.8,72.8c0,0,0.7-33.5,29.7-44.3c0,0-17.4-26.5-36.4-22.7C46.2,9.9,38.6,27.7,36.5,36.3
		C34.1,45.7,40,69,72.8,72.8z"/>
	<path class="st0" d="M75.5,72.9c0,0,33.5,0.7,44.3,29.7c0,0,26.5-17.4,22.7-36.4c-4.1-19.9-21.9-27.5-30.4-29.7
		C102.6,34.2,79.3,40.2,75.5,72.9z"/>
</g>
</svg>
